<svg width="119" height="119" viewBox="0 0 119 119" fill="none" xmlns="http://www.w3.org/2000/svg">
<path d="M3.07106 24.0711L38.5 59.5L3.07107 94.9289C-0.834175 98.8342 -0.834176 105.166 3.07107 109.071L9.92893 115.929C13.8342 119.834 20.1658 119.834 24.0711 115.929L59.5 80.5L94.9289 115.929C98.8342 119.834 105.166 119.834 109.071 115.929L115.929 109.071C119.834 105.166 119.834 98.8342 115.929 94.9289L80.5 59.5L115.929 24.0711C119.834 20.1658 119.834 13.8342 115.929 9.92893L109.071 3.07107C105.166 -0.834175 98.8342 -0.834182 94.9289 3.07106L59.5 38.5L24.0711 3.07107C20.1658 -0.834175 13.8342 -0.834176 9.92893 3.07107L3.07107 9.92893C-0.834175 13.8342 -0.834182 20.1658 3.07106 24.0711Z" fill="#D9D9D9" fill-opacity="0.3"/>
</svg>
