<svg width="303" height="204" viewBox="0 0 303 204" fill="none" xmlns="http://www.w3.org/2000/svg">
<path d="M91.2617 24.1616C59.2617 -0.238424 22.0951 -0.504748 0.761719 0.161918V174.128H137.762C137.762 109 177.5 97.7331 200.5 100.5C252.762 106.787 258 155.5 252.762 178.628C273.244 180.288 286.928 175.341 294.739 170.148C300.005 166.647 302.057 160.306 302.41 153.993C303.959 126.315 302.206 107.62 300.059 96.8306C298.747 90.2412 296.773 83.2119 291.426 79.1448C269.01 62.0975 188.696 53.1424 139.702 50.1511C133.506 49.7728 127.523 47.8389 122.325 44.445L91.2617 24.1616Z" fill="white"/>
<circle cx="46" cy="46" r="46" transform="matrix(-1 0 0 1 243 112)" fill="white"/>
</svg>
